<?xml version="1.0" encoding="utf-8"?>
<!-- Generator: Adobe Illustrator 26.3.1, SVG Export Plug-In . SVG Version: 6.00 Build 0)  -->
<svg version="1.1" id="レイヤー_1" xmlns="http://www.w3.org/2000/svg" xmlns:xlink="http://www.w3.org/1999/xlink" x="0px"
	 y="0px" viewBox="0 0 160 160" style="enable-background:new 0 0 160 160;" xml:space="preserve">
<style type="text/css">
	.st0{fill:#0071BC;}
</style>
<g>
	<rect x="8.5" y="80" class="st0" width="10.5" height="71.5"/>
	<rect x="45" y="8.5" class="st0" width="6" height="31.5"/>
	<rect x="8.5" y="8.5" class="st0" width="10.5" height="31.5"/>
	<rect x="45" y="80" class="st0" width="6" height="71.5"/>
	<rect x="45" y="50" class="st0" width="6" height="27"/>
	<rect x="54" y="8.5" class="st0" width="97.5" height="31.5"/>
	<rect x="8.5" y="50" class="st0" width="10.5" height="27"/>
	<rect x="54" y="80" class="st0" width="6" height="71.5"/>
	<polygon class="st0" points="54,77 60,77 80,77 80,151.5 151.5,151.5 151.5,50 54,50 	"/>
	<rect x="19" y="40" class="st0" width="26" height="10"/>
	<rect x="51" y="40" class="st0" width="3" height="10"/>
	<rect x="19" y="77" class="st0" width="26" height="3"/>
	<rect x="51" y="77" class="st0" width="3" height="3"/>
</g>
</svg>
